<svg width="156" height="59" viewBox="0 0 156 59" fill="none" xmlns="http://www.w3.org/2000/svg">
<path d="M8.64 10.1575C11.74 10.1575 14.12 10.7075 15.78 11.8075C17.44 12.8875 18.27 14.6675 18.27 17.1475C18.27 19.6475 17.43 21.4575 15.75 22.5775C14.07 23.6775 11.67 24.2275 8.55 24.2275H7.08V31.1875H2.4V10.6975C3.42 10.4975 4.5 10.3575 5.64 10.2775C6.78 10.1975 7.78 10.1575 8.64 10.1575ZM8.94 14.1475C8.6 14.1475 8.26 14.1575 7.92 14.1775C7.6 14.1975 7.32 14.2175 7.08 14.2375V20.2375H8.55C10.17 20.2375 11.39 20.0175 12.21 19.5775C13.03 19.1375 13.44 18.3175 13.44 17.1175C13.44 16.5375 13.33 16.0575 13.11 15.6775C12.91 15.2975 12.61 14.9975 12.21 14.7775C11.83 14.5375 11.36 14.3775 10.8 14.2975C10.24 14.1975 9.62 14.1475 8.94 14.1475ZM30.9166 19.3675C30.5166 19.2675 30.0466 19.1675 29.5066 19.0675C28.9666 18.9475 28.3866 18.8875 27.7666 18.8875C27.4866 18.8875 27.1466 18.9175 26.7466 18.9775C26.3666 19.0175 26.0766 19.0675 25.8766 19.1275V31.1875H21.4066V16.2475C22.2066 15.9675 23.1466 15.7075 24.2266 15.4675C25.3266 15.2075 26.5466 15.0775 27.8866 15.0775C28.1266 15.0775 28.4166 15.0975 28.7566 15.1375C29.0966 15.1575 29.4366 15.1975 29.7766 15.2575C30.1166 15.2975 30.4566 15.3575 30.7966 15.4375C31.1366 15.4975 31.4266 15.5775 31.6666 15.6775L30.9166 19.3675ZM48.5299 23.2675C48.5299 24.5075 48.3499 25.6475 47.9899 26.6875C47.6299 27.7075 47.1099 28.5875 46.4299 29.3275C45.7499 30.0475 44.9299 30.6075 43.9699 31.0075C43.0299 31.4075 41.9699 31.6075 40.7899 31.6075C39.6299 31.6075 38.5699 31.4075 37.6099 31.0075C36.6699 30.6075 35.8599 30.0475 35.1799 29.3275C34.4999 28.5875 33.9699 27.7075 33.5899 26.6875C33.2099 25.6475 33.0199 24.5075 33.0199 23.2675C33.0199 22.0275 33.2099 20.8975 33.5899 19.8775C33.9899 18.8575 34.5299 17.9875 35.2099 17.2675C35.9099 16.5475 36.7299 15.9875 37.6699 15.5875C38.6299 15.1875 39.6699 14.9875 40.7899 14.9875C41.9299 14.9875 42.9699 15.1875 43.9099 15.5875C44.8699 15.9875 45.6899 16.5475 46.3699 17.2675C47.0499 17.9875 47.5799 18.8575 47.9599 19.8775C48.3399 20.8975 48.5299 22.0275 48.5299 23.2675ZM43.9699 23.2675C43.9699 21.8875 43.6899 20.8075 43.1299 20.0275C42.5899 19.2275 41.8099 18.8275 40.7899 18.8275C39.7699 18.8275 38.9799 19.2275 38.4199 20.0275C37.8599 20.8075 37.5799 21.8875 37.5799 23.2675C37.5799 24.6475 37.8599 25.7475 38.4199 26.5675C38.9799 27.3675 39.7699 27.7675 40.7899 27.7675C41.8099 27.7675 42.5899 27.3675 43.1299 26.5675C43.6899 25.7475 43.9699 24.6475 43.9699 23.2675ZM57.9626 27.6175C58.6226 27.6175 59.1626 27.5675 59.5826 27.4675C60.0226 27.3475 60.3726 27.1975 60.6326 27.0175C60.8926 26.8175 61.0726 26.5875 61.1726 26.3275C61.2726 26.0675 61.3226 25.7775 61.3226 25.4575C61.3226 24.7775 61.0026 24.2175 60.3626 23.7775C59.7226 23.3175 58.6226 22.8275 57.0626 22.3075C56.3826 22.0675 55.7026 21.7975 55.0226 21.4975C54.3426 21.1775 53.7326 20.7875 53.1926 20.3275C52.6526 19.8475 52.2126 19.2775 51.8726 18.6175C51.5326 17.9375 51.3626 17.1175 51.3626 16.1575C51.3626 15.1975 51.5426 14.3375 51.9026 13.5775C52.2626 12.7975 52.7726 12.1375 53.4326 11.5975C54.0926 11.0575 54.8926 10.6475 55.8326 10.3675C56.7726 10.0675 57.8326 9.9175 59.0126 9.9175C60.4126 9.9175 61.6226 10.0675 62.6426 10.3675C63.6626 10.6675 64.5026 10.9975 65.1626 11.3575L63.8126 15.0475C63.2326 14.7475 62.5826 14.4875 61.8626 14.2675C61.1626 14.0275 60.3126 13.9075 59.3126 13.9075C58.1926 13.9075 57.3826 14.0675 56.8826 14.3875C56.4026 14.6875 56.1626 15.1575 56.1626 15.7975C56.1626 16.1775 56.2526 16.4975 56.4326 16.7575C56.6126 17.0175 56.8626 17.2575 57.1826 17.4775C57.5226 17.6775 57.9026 17.8675 58.3226 18.0475C58.7626 18.2075 59.2426 18.3775 59.7626 18.5575C60.8426 18.9575 61.7826 19.3575 62.5826 19.7575C63.3826 20.1375 64.0426 20.5875 64.5626 21.1075C65.1026 21.6275 65.5026 22.2375 65.7626 22.9375C66.0226 23.6375 66.1526 24.4875 66.1526 25.4875C66.1526 27.4275 65.4726 28.9375 64.1126 30.0175C62.7526 31.0775 60.7026 31.6075 57.9626 31.6075C57.0426 31.6075 56.2126 31.5475 55.4726 31.4275C54.7326 31.3275 54.0726 31.1975 53.4926 31.0375C52.9326 30.8775 52.4426 30.7075 52.0226 30.5275C51.6226 30.3475 51.2826 30.1775 51.0026 30.0175L52.3226 26.2975C52.9426 26.6375 53.7026 26.9475 54.6026 27.2275C55.5226 27.4875 56.6426 27.6175 57.9626 27.6175ZM75.8351 28.0675C76.2751 28.0675 76.6951 28.0575 77.0951 28.0375C77.4951 28.0175 77.8151 27.9875 78.0551 27.9475V24.5575C77.8751 24.5175 77.6051 24.4775 77.2451 24.4375C76.8851 24.3975 76.5551 24.3775 76.2551 24.3775C75.8351 24.3775 75.4351 24.4075 75.0551 24.4675C74.6951 24.5075 74.3751 24.5975 74.0951 24.7375C73.8151 24.8775 73.5951 25.0675 73.4351 25.3075C73.2751 25.5475 73.1951 25.8475 73.1951 26.2075C73.1951 26.9075 73.4251 27.3975 73.8851 27.6775C74.3651 27.9375 75.0151 28.0675 75.8351 28.0675ZM75.4751 14.9875C76.7951 14.9875 77.8951 15.1375 78.7751 15.4375C79.6551 15.7375 80.3551 16.1675 80.8751 16.7275C81.4151 17.2875 81.7951 17.9675 82.0151 18.7675C82.2351 19.5675 82.3451 20.4575 82.3451 21.4375V30.7375C81.7051 30.8775 80.8151 31.0375 79.6751 31.2175C78.5351 31.4175 77.1551 31.5175 75.5351 31.5175C74.5151 31.5175 73.5851 31.4275 72.7451 31.2475C71.9251 31.0675 71.2151 30.7775 70.6151 30.3775C70.0151 29.9575 69.5551 29.4175 69.2351 28.7575C68.9151 28.0975 68.7551 27.2875 68.7551 26.3275C68.7551 25.4075 68.9351 24.6275 69.2951 23.9875C69.6751 23.3475 70.1751 22.8375 70.7951 22.4575C71.4151 22.0775 72.1251 21.8075 72.9251 21.6475C73.7251 21.4675 74.5551 21.3775 75.4151 21.3775C75.9951 21.3775 76.5051 21.4075 76.9451 21.4675C77.4051 21.5075 77.7751 21.5675 78.0551 21.6475V21.2275C78.0551 20.4675 77.8251 19.8575 77.3651 19.3975C76.9051 18.9375 76.1051 18.7075 74.9651 18.7075C74.2051 18.7075 73.4551 18.7675 72.7151 18.8875C71.9751 18.9875 71.3351 19.1375 70.7951 19.3375L70.2251 15.7375C70.4851 15.6575 70.8051 15.5775 71.1851 15.4975C71.5851 15.3975 72.0151 15.3175 72.4751 15.2575C72.9351 15.1775 73.4151 15.1175 73.9151 15.0775C74.4351 15.0175 74.9551 14.9875 75.4751 14.9875ZM92.4171 28.0675C92.8571 28.0675 93.2771 28.0575 93.6771 28.0375C94.0771 28.0175 94.3971 27.9875 94.6371 27.9475V24.5575C94.4571 24.5175 94.1871 24.4775 93.8271 24.4375C93.4671 24.3975 93.1371 24.3775 92.8371 24.3775C92.4171 24.3775 92.0171 24.4075 91.6371 24.4675C91.2771 24.5075 90.9571 24.5975 90.6771 24.7375C90.3971 24.8775 90.1771 25.0675 90.0171 25.3075C89.8571 25.5475 89.7771 25.8475 89.7771 26.2075C89.7771 26.9075 90.0071 27.3975 90.4671 27.6775C90.9471 27.9375 91.5971 28.0675 92.4171 28.0675ZM92.0571 14.9875C93.3771 14.9875 94.4771 15.1375 95.3571 15.4375C96.2371 15.7375 96.9371 16.1675 97.4571 16.7275C97.9971 17.2875 98.3771 17.9675 98.5971 18.7675C98.8171 19.5675 98.9271 20.4575 98.9271 21.4375V30.7375C98.2871 30.8775 97.3971 31.0375 96.2571 31.2175C95.1171 31.4175 93.7371 31.5175 92.1171 31.5175C91.0971 31.5175 90.1671 31.4275 89.3271 31.2475C88.5071 31.0675 87.7971 30.7775 87.1971 30.3775C86.5971 29.9575 86.1371 29.4175 85.8171 28.7575C85.4971 28.0975 85.3371 27.2875 85.3371 26.3275C85.3371 25.4075 85.5171 24.6275 85.8771 23.9875C86.2571 23.3475 86.7571 22.8375 87.3771 22.4575C87.9971 22.0775 88.7071 21.8075 89.5071 21.6475C90.3071 21.4675 91.1371 21.3775 91.9971 21.3775C92.5771 21.3775 93.0871 21.4075 93.5271 21.4675C93.9871 21.5075 94.3571 21.5675 94.6371 21.6475V21.2275C94.6371 20.4675 94.4071 19.8575 93.9471 19.3975C93.4871 18.9375 92.6871 18.7075 91.5471 18.7075C90.7871 18.7075 90.0371 18.7675 89.2971 18.8875C88.5571 18.9875 87.9171 19.1375 87.3771 19.3375L86.8071 15.7375C87.0671 15.6575 87.3871 15.5775 87.7671 15.4975C88.1671 15.3975 88.5971 15.3175 89.0571 15.2575C89.5171 15.1775 89.9971 15.1175 90.4971 15.0775C91.0171 15.0175 91.5371 14.9875 92.0571 14.9875ZM107.499 27.9775C108.319 27.9775 108.899 27.8975 109.239 27.7375C109.579 27.5775 109.749 27.2675 109.749 26.8075C109.749 26.4475 109.529 26.1375 109.089 25.8775C108.649 25.5975 107.979 25.2875 107.079 24.9475C106.379 24.6875 105.739 24.4175 105.159 24.1375C104.599 23.8575 104.119 23.5275 103.719 23.1475C103.319 22.7475 103.009 22.2775 102.789 21.7375C102.569 21.1975 102.459 20.5475 102.459 19.7875C102.459 18.3075 103.009 17.1375 104.109 16.2775C105.209 15.4175 106.719 14.9875 108.639 14.9875C109.599 14.9875 110.519 15.0775 111.399 15.2575C112.279 15.4175 112.979 15.5975 113.499 15.7975L112.719 19.2775C112.199 19.0975 111.629 18.9375 111.009 18.7975C110.409 18.6575 109.729 18.5875 108.969 18.5875C107.569 18.5875 106.869 18.9775 106.869 19.7575C106.869 19.9375 106.899 20.0975 106.959 20.2375C107.019 20.3775 107.139 20.5175 107.319 20.6575C107.499 20.7775 107.739 20.9175 108.039 21.0775C108.359 21.2175 108.759 21.3775 109.239 21.5575C110.219 21.9175 111.029 22.2775 111.669 22.6375C112.309 22.9775 112.809 23.3575 113.169 23.7775C113.549 24.1775 113.809 24.6275 113.949 25.1275C114.109 25.6275 114.189 26.2075 114.189 26.8675C114.189 28.4275 113.599 29.6075 112.419 30.4075C111.259 31.2075 109.609 31.6075 107.469 31.6075C106.069 31.6075 104.899 31.4875 103.959 31.2475C103.039 31.0075 102.399 30.8075 102.039 30.6475L102.789 27.0175C103.549 27.3175 104.329 27.5575 105.129 27.7375C105.929 27.8975 106.719 27.9775 107.499 27.9775Z" fill="#303030"/>
</svg>
