<svg width="196" height="53" viewBox="0 0 196 53" fill="none" xmlns="http://www.w3.org/2000/svg">
<path d="M66.9617 27.2021H62.3447L54.6227 15.5111V27.2021H50.0057V8.24815H54.6227L62.3447 19.9931V8.24815H66.9617V27.2021ZM77.1664 27.4181C75.6904 27.4181 74.3584 27.1031 73.1704 26.4731C72.0004 25.8431 71.0734 24.9431 70.3894 23.7731C69.7234 22.6031 69.3904 21.2351 69.3904 19.6691C69.3904 18.1211 69.7324 16.7621 70.4164 15.5921C71.1004 14.4041 72.0364 13.4951 73.2244 12.8651C74.4124 12.2351 75.7444 11.9201 77.2204 11.9201C78.6964 11.9201 80.0284 12.2351 81.2164 12.8651C82.4044 13.4951 83.3404 14.4041 84.0244 15.5921C84.7084 16.7621 85.0504 18.1211 85.0504 19.6691C85.0504 21.2171 84.6994 22.5851 83.9974 23.7731C83.3134 24.9431 82.3684 25.8431 81.1624 26.4731C79.9744 27.1031 78.6424 27.4181 77.1664 27.4181ZM77.1664 23.4221C78.0484 23.4221 78.7954 23.0981 79.4074 22.4501C80.0374 21.8021 80.3524 20.8751 80.3524 19.6691C80.3524 18.4631 80.0464 17.5361 79.4344 16.8881C78.8404 16.2401 78.1024 15.9161 77.2204 15.9161C76.3204 15.9161 75.5734 16.2401 74.9794 16.8881C74.3854 17.5181 74.0884 18.4451 74.0884 19.6691C74.0884 20.8751 74.3764 21.8021 74.9524 22.4501C75.5464 23.0981 76.2844 23.4221 77.1664 23.4221ZM86.5548 11.7851V7.49215H94.0338V27.2021H89.2278V11.7851H86.5548ZM102.59 17.6981C102.59 15.8261 102.995 14.1611 103.805 12.7031C104.615 11.2271 105.74 10.0841 107.18 9.27415C108.638 8.44615 110.285 8.03215 112.121 8.03215C114.371 8.03215 116.297 8.62615 117.899 9.81415C119.501 11.0021 120.572 12.6221 121.112 14.6741H116.036C115.658 13.8821 115.118 13.2791 114.416 12.8651C113.732 12.4511 112.949 12.2441 112.067 12.2441C110.645 12.2441 109.493 12.7391 108.611 13.7291C107.729 14.7191 107.288 16.0421 107.288 17.6981C107.288 19.3541 107.729 20.6771 108.611 21.6671C109.493 22.6571 110.645 23.1521 112.067 23.1521C112.949 23.1521 113.732 22.9451 114.416 22.5311C115.118 22.1171 115.658 21.5141 116.036 20.7221H121.112C120.572 22.7741 119.501 24.3941 117.899 25.5821C116.297 26.7521 114.371 27.3371 112.121 27.3371C110.285 27.3371 108.638 26.9321 107.18 26.1221C105.74 25.2941 104.615 24.1511 103.805 22.6931C102.995 21.2351 102.59 19.5701 102.59 17.6981ZM126.261 10.5701C125.451 10.5701 124.785 10.3361 124.263 9.86815C123.759 9.38215 123.507 8.78815 123.507 8.08615C123.507 7.36615 123.759 6.77215 124.263 6.30415C124.785 5.81815 125.451 5.57515 126.261 5.57515C127.053 5.57515 127.701 5.81815 128.205 6.30415C128.727 6.77215 128.988 7.36615 128.988 8.08615C128.988 8.78815 128.727 9.38215 128.205 9.86815C127.701 10.3361 127.053 10.5701 126.261 10.5701ZM128.556 12.1361V27.2021H123.939V12.1361H128.556ZM140.299 23.2871V27.2021H137.95C136.276 27.2021 134.971 26.7971 134.035 25.9871C133.099 25.1591 132.631 23.8181 132.631 21.9641V15.9701H130.795V12.1361H132.631V8.46415H137.248V12.1361H140.272V15.9701H137.248V22.0181C137.248 22.4681 137.356 22.7921 137.572 22.9901C137.788 23.1881 138.148 23.2871 138.652 23.2871H140.299ZM158.261 12.1361L148.811 34.3571H143.843L147.299 26.6891L141.17 12.1361H146.327L149.81 21.5591L153.266 12.1361H158.261Z" fill="#303030"/>
<rect x="0.174194" y="4.72363" width="12.0394" height="13.565" fill="white"/>
<rect x="0.174194" y="18.2881" width="12.0394" height="15.0722" fill="#303030"/>
<rect x="0.174194" y="33.3604" width="12.0394" height="13.565" fill="#303030"/>
<rect x="12.2135" y="4.72363" width="13.3771" height="13.565" fill="#303030"/>
<rect x="12.2135" y="33.3613" width="13.3771" height="13.565" fill="#303030"/>
<rect x="25.5906" y="4.72363" width="12.0394" height="13.565" fill="#303030"/>
<rect x="25.5906" y="18.2891" width="12.0394" height="15.0722" fill="#303030"/>
<rect x="25.5906" y="33.3613" width="12.0394" height="13.565" fill="white"/>
<rect x="6.86267" y="12.2598" width="24.0787" height="27.1299" fill="#ECECEC"/>
</svg>
