<svg width="142" height="59" viewBox="0 0 142 59" fill="none" xmlns="http://www.w3.org/2000/svg">
<path d="M8.39961 10.3975C8.75961 11.0575 9.16961 11.8775 9.62961 12.8575C10.1096 13.8175 10.5996 14.8675 11.0996 16.0075C11.6196 17.1275 12.1296 18.2775 12.6296 19.4575C13.1296 20.6375 13.5996 21.7475 14.0396 22.7875C14.4796 21.7475 14.9496 20.6375 15.4496 19.4575C15.9496 18.2775 16.4496 17.1275 16.9496 16.0075C17.4696 14.8675 17.9596 13.8175 18.4196 12.8575C18.8996 11.8775 19.3196 11.0575 19.6796 10.3975H23.9396C24.1396 11.7775 24.3196 13.3275 24.4796 15.0475C24.6596 16.7475 24.8096 18.5275 24.9296 20.3875C25.0696 22.2275 25.1896 24.0775 25.2896 25.9375C25.4096 27.7975 25.5096 29.5475 25.5896 31.1875H21.0296C20.9696 29.1675 20.8896 26.9675 20.7896 24.5875C20.6896 22.2075 20.5396 19.8075 20.3396 17.3875C19.9796 18.2275 19.5796 19.1575 19.1396 20.1775C18.6996 21.1975 18.2596 22.2175 17.8196 23.2375C17.3996 24.2575 16.9896 25.2375 16.5896 26.1775C16.1896 27.0975 15.8496 27.8875 15.5696 28.5475H12.2996C12.0196 27.8875 11.6796 27.0975 11.2796 26.1775C10.8796 25.2375 10.4596 24.2575 10.0196 23.2375C9.59961 22.2175 9.16961 21.1975 8.72961 20.1775C8.28961 19.1575 7.88961 18.2275 7.52961 17.3875C7.32961 19.8075 7.17961 22.2075 7.07961 24.5875C6.97961 26.9675 6.89961 29.1675 6.83961 31.1875H2.27961C2.35961 29.5475 2.44961 27.7975 2.54961 25.9375C2.66961 24.0775 2.78961 22.2275 2.90961 20.3875C3.04961 18.5275 3.19961 16.7475 3.35961 15.0475C3.53961 13.3275 3.72961 11.7775 3.92961 10.3975H8.39961ZM35.5334 28.0675C35.9734 28.0675 36.3934 28.0575 36.7934 28.0375C37.1934 28.0175 37.5134 27.9875 37.7534 27.9475V24.5575C37.5734 24.5175 37.3034 24.4775 36.9434 24.4375C36.5834 24.3975 36.2534 24.3775 35.9534 24.3775C35.5334 24.3775 35.1334 24.4075 34.7534 24.4675C34.3934 24.5075 34.0734 24.5975 33.7934 24.7375C33.5134 24.8775 33.2934 25.0675 33.1334 25.3075C32.9734 25.5475 32.8934 25.8475 32.8934 26.2075C32.8934 26.9075 33.1234 27.3975 33.5834 27.6775C34.0634 27.9375 34.7134 28.0675 35.5334 28.0675ZM35.1734 14.9875C36.4934 14.9875 37.5934 15.1375 38.4734 15.4375C39.3534 15.7375 40.0534 16.1675 40.5734 16.7275C41.1134 17.2875 41.4934 17.9675 41.7134 18.7675C41.9334 19.5675 42.0434 20.4575 42.0434 21.4375V30.7375C41.4034 30.8775 40.5134 31.0375 39.3734 31.2175C38.2334 31.4175 36.8534 31.5175 35.2334 31.5175C34.2134 31.5175 33.2834 31.4275 32.4434 31.2475C31.6234 31.0675 30.9134 30.7775 30.3134 30.3775C29.7134 29.9575 29.2534 29.4175 28.9334 28.7575C28.6134 28.0975 28.4534 27.2875 28.4534 26.3275C28.4534 25.4075 28.6334 24.6275 28.9934 23.9875C29.3734 23.3475 29.8734 22.8375 30.4934 22.4575C31.1134 22.0775 31.8234 21.8075 32.6234 21.6475C33.4234 21.4675 34.2534 21.3775 35.1134 21.3775C35.6934 21.3775 36.2034 21.4075 36.6434 21.4675C37.1034 21.5075 37.4734 21.5675 37.7534 21.6475V21.2275C37.7534 20.4675 37.5234 19.8575 37.0634 19.3975C36.6034 18.9375 35.8034 18.7075 34.6634 18.7075C33.9034 18.7075 33.1534 18.7675 32.4134 18.8875C31.6734 18.9875 31.0334 19.1375 30.4934 19.3375L29.9234 15.7375C30.1834 15.6575 30.5034 15.5775 30.8834 15.4975C31.2834 15.3975 31.7134 15.3175 32.1734 15.2575C32.6334 15.1775 33.1134 15.1175 33.6134 15.0775C34.1334 15.0175 34.6534 14.9875 35.1734 14.9875ZM45.9355 11.4775L50.4055 10.7575V15.4075H55.7755V19.1275H50.4055V24.6775C50.4055 25.6175 50.5655 26.3675 50.8855 26.9275C51.2255 27.4875 51.8955 27.7675 52.8955 27.7675C53.3755 27.7675 53.8655 27.7275 54.3655 27.6475C54.8855 27.5475 55.3555 27.4175 55.7755 27.2575L56.4055 30.7375C55.8655 30.9575 55.2655 31.1475 54.6055 31.3075C53.9455 31.4675 53.1355 31.5475 52.1755 31.5475C50.9555 31.5475 49.9455 31.3875 49.1455 31.0675C48.3455 30.7275 47.7055 30.2675 47.2255 29.6875C46.7455 29.0875 46.4055 28.3675 46.2055 27.5275C46.0255 26.6875 45.9355 25.7575 45.9355 24.7375V11.4775ZM64.8596 28.0675C65.2996 28.0675 65.7196 28.0575 66.1196 28.0375C66.5196 28.0175 66.8396 27.9875 67.0796 27.9475V24.5575C66.8996 24.5175 66.6296 24.4775 66.2696 24.4375C65.9096 24.3975 65.5796 24.3775 65.2796 24.3775C64.8596 24.3775 64.4596 24.4075 64.0796 24.4675C63.7196 24.5075 63.3996 24.5975 63.1196 24.7375C62.8396 24.8775 62.6196 25.0675 62.4596 25.3075C62.2996 25.5475 62.2196 25.8475 62.2196 26.2075C62.2196 26.9075 62.4496 27.3975 62.9096 27.6775C63.3896 27.9375 64.0396 28.0675 64.8596 28.0675ZM64.4996 14.9875C65.8196 14.9875 66.9196 15.1375 67.7996 15.4375C68.6796 15.7375 69.3796 16.1675 69.8996 16.7275C70.4396 17.2875 70.8196 17.9675 71.0396 18.7675C71.2596 19.5675 71.3696 20.4575 71.3696 21.4375V30.7375C70.7296 30.8775 69.8396 31.0375 68.6996 31.2175C67.5596 31.4175 66.1796 31.5175 64.5596 31.5175C63.5396 31.5175 62.6096 31.4275 61.7696 31.2475C60.9496 31.0675 60.2396 30.7775 59.6396 30.3775C59.0396 29.9575 58.5796 29.4175 58.2596 28.7575C57.9396 28.0975 57.7796 27.2875 57.7796 26.3275C57.7796 25.4075 57.9596 24.6275 58.3196 23.9875C58.6996 23.3475 59.1996 22.8375 59.8196 22.4575C60.4396 22.0775 61.1496 21.8075 61.9496 21.6475C62.7496 21.4675 63.5796 21.3775 64.4396 21.3775C65.0196 21.3775 65.5296 21.4075 65.9696 21.4675C66.4296 21.5075 66.7996 21.5675 67.0796 21.6475V21.2275C67.0796 20.4675 66.8496 19.8575 66.3896 19.3975C65.9296 18.9375 65.1296 18.7075 63.9896 18.7075C63.2296 18.7075 62.4796 18.7675 61.7396 18.8875C60.9996 18.9875 60.3596 19.1375 59.8196 19.3375L59.2496 15.7375C59.5096 15.6575 59.8296 15.5775 60.2096 15.4975C60.6096 15.3975 61.0396 15.3175 61.4996 15.2575C61.9596 15.1775 62.4396 15.1175 62.9396 15.0775C63.4596 15.0175 63.9796 14.9875 64.4996 14.9875Z" fill="#303030"/>
<path d="M125.267 49.9254V30.4168L111.883 16.7666V49.9254H125.267Z" fill="#303030"/>
<path d="M141.262 49.4524V30.222L128.338 16.7666V49.4524H141.262Z" fill="#303030"/>
</svg>
