<svg width="173" height="51" viewBox="0 0 173 51" fill="none" xmlns="http://www.w3.org/2000/svg">
<path d="M36.9696 50.6819H8.73658C4.09694 50.6819 0.336792 46.4897 0.336792 41.3169V9.83963C0.336792 4.66685 4.09694 0.474609 8.73658 0.474609H36.9696C41.6092 0.474609 45.3694 4.66685 45.3694 9.83963V41.3169C45.3694 46.4897 41.6092 50.6819 36.9696 50.6819Z" fill="#303030"/>
<path d="M30.967 26.0407C31.77 27.1634 32.1779 28.4708 32.1779 29.9487C32.1779 32.123 31.5278 33.8283 30.2277 35.0363C28.9276 36.2442 27.0666 36.8695 24.6448 36.8695H14.0654V11.5029H24.3899C26.7097 11.5029 28.4942 12.0714 29.7561 13.194C31.018 14.3167 31.6553 15.9225 31.6553 17.9973C31.6553 19.5321 31.2857 20.7969 30.5591 21.8201C29.8326 22.8433 28.8766 23.497 27.6912 23.8096C29.0805 24.1791 30.164 24.9181 30.967 26.0407ZM19.5591 21.8769H23.1663C25.0782 21.8769 26.0342 20.9674 26.0342 19.1484C26.0342 17.3294 25.0527 16.4199 23.1025 16.4199H19.5591V21.8769ZM26.544 29.0961C26.544 28.1866 26.2764 27.4761 25.741 26.9645C25.2057 26.4529 24.4409 26.1971 23.4594 26.1971H19.5718V31.8957H23.4977C25.5243 31.8814 26.544 30.9577 26.544 29.0961Z" fill="white"/>
<path d="M71.462 36.8695L66.5419 27.2913H65.2928V36.8695H59.7864V11.5029H69.1804C70.9777 11.5029 72.5072 11.844 73.7436 12.5403C74.9928 13.2367 75.9232 14.1888 76.5478 15.3967C77.1724 16.6047 77.4783 17.9831 77.4783 19.5463C77.4783 21.3938 77.0194 22.957 76.1144 24.2502C75.1967 25.5434 73.8838 26.4244 72.1376 26.9076L77.542 36.8837H71.462V36.8695ZM65.2928 23.0991H68.6961C69.7923 23.0991 70.5953 22.8291 71.1051 22.289C71.615 21.749 71.8826 20.9532 71.8826 19.9016C71.8826 18.8926 71.615 18.111 71.0924 17.5284C70.5698 16.9599 69.7668 16.6615 68.6961 16.6615H65.2928V23.0991Z" fill="#303030"/>
<path d="M102.385 32.2512H93.8576L92.4427 36.884H86.6559L94.992 11.7021H101.327L109.663 36.884H103.812L102.385 32.2512ZM100.97 27.5758L98.1403 18.2534L95.2724 27.5758H100.97Z" fill="#303030"/>
<path d="M140.037 36.8695H134.531L125.328 21.2943V36.8695H119.822V11.5029H125.328L134.531 27.2202V11.5029H140.037V36.8695Z" fill="#303030"/>
<path d="M170.91 30.7592C169.954 32.6777 168.577 34.184 166.793 35.2641C164.995 36.3441 162.892 36.8841 160.471 36.8841H151.88V11.5176H160.471C162.918 11.5176 165.034 12.0434 166.805 13.095C168.59 14.1466 169.954 15.6245 170.91 17.543C171.866 19.4615 172.337 21.65 172.337 24.1511C172.337 26.6238 171.853 28.8265 170.91 30.7592ZM164.983 29.4802C166.168 28.2154 166.767 26.4249 166.767 24.1369C166.767 21.8347 166.168 20.0584 164.983 18.7936C163.797 17.5288 162.128 16.8893 159.973 16.8893H157.373V31.3845H159.973C162.128 31.3845 163.797 30.7592 164.983 29.4802Z" fill="#303030"/>
</svg>
