<svg width="158" height="63" viewBox="0 0 158 63" fill="none" xmlns="http://www.w3.org/2000/svg">
<path d="M1.41232 49.7127C5.50448 51.6209 9.67441 53.0954 13.9222 54.223C18.1388 55.4027 22.4332 56.2353 26.7277 56.7558C28.8749 57.0854 31.0376 57.1201 33.1693 57.3456C35.3321 57.3629 37.4793 57.5537 39.6265 57.415L42.8473 57.3282C43.9209 57.3109 44.9945 57.1548 46.0681 57.0854C47.1417 56.9813 48.2153 56.9292 49.2734 56.7731L52.4631 56.27C56.7419 55.7496 60.8963 54.6394 65.0352 53.3036C69.2207 52.0199 73.1728 50.3199 77.3583 48.5504C81.6372 46.7983 86.2739 45.6534 90.9729 46.2085C93.2912 46.5381 95.6252 47.3708 97.5234 48.8974C99.4373 50.4066 100.806 52.5577 101.678 54.8128C100.371 52.8005 98.7371 51.1525 96.8544 50.129C94.9717 49.1055 92.9023 48.6892 90.8484 48.7586C86.694 48.828 82.6018 50.3719 78.7586 52.3148C74.8532 54.4659 70.621 56.4088 66.3577 58.0221C62.0633 59.566 57.6288 60.7977 53.1321 61.4222C44.1854 62.7406 35.0209 62.758 26.1831 60.763C21.7486 59.861 17.423 58.4558 13.2375 56.669C9.08315 54.8128 5.02213 52.6444 1.41232 49.7127Z" fill="#303030"/>
<path d="M5.34689 22.8105V9.90948H1.10176V7.54878H12.1805V9.90948H7.93539V22.8105H5.34689ZM14.1022 22.8105L11.8036 20.512V14.2996L14.1022 11.9803H19.0721L21.3706 14.2996V18.3169H14.3092V19.8493L15.2204 20.7605H21.1843V22.8105H14.1022ZM14.3092 16.3911H18.865V14.838L17.9538 13.9268H15.2204L14.3092 14.838V16.3911ZM26.3571 22.8105L24.0585 20.512V14.2996L26.3571 11.9803H31.5341L33.6049 14.0097V16.039H31.0992V14.838L30.188 13.9268H27.4753L26.5641 14.838V19.8493L27.4753 20.7605H33.522V22.8105H26.3571ZM36.0958 22.8105V7.54878H38.6015V13.5748L40.196 11.9803H44.0684L46.3669 14.2996V22.8105H43.8613V14.8794L42.9915 13.9268H40.8172L38.6015 16.1219V22.8105H36.0958ZM54.3795 22.8105V7.54878H56.968V13.6783H63.6566V7.54878H66.2451V22.8105H63.6566V15.9562H56.968V22.8105H54.3795ZM71.5546 22.8105L69.256 20.512V14.2996L71.5546 11.9803H76.9801L79.2787 14.2996V20.512L76.9801 22.8105H71.5546ZM72.6729 20.8847L75.8619 20.864L76.773 19.9528V14.838L75.8619 13.9268H72.6729L71.7617 14.838V19.9528L72.6729 20.8847ZM84.3782 22.8105L82.0796 20.512V11.9803H84.5853V19.9114L85.455 20.864H87.5465L89.7416 18.7104V11.9803H92.2472V22.8105H89.7416V21.2574L88.1678 22.8105H84.3782ZM95.493 22.8105V20.7605H101.167L101.995 19.9114V19.2074L101.022 18.2341H97.0047L94.8925 16.1633V14.0718L96.9633 11.9803H103.341V14.0304H98.2058L97.3982 14.838V15.3143L98.33 16.2461H102.389L104.501 18.3169V20.7398L102.43 22.8105H95.493ZM109.088 22.8105L106.789 20.512V14.2996L109.088 11.9803H114.058L116.356 14.2996V18.3169H109.295V19.8493L110.206 20.7605H116.17V22.8105H109.088ZM109.295 16.3911H113.851V14.838L112.939 13.9268H110.206L109.295 14.838V16.3911Z" fill="#303030"/>
</svg>
