<svg width="42" height="42" viewBox="0 0 42 42" fill="none" xmlns="http://www.w3.org/2000/svg">
<path d="M12.2501 0.166504H29.7501C36.4167 0.166504 41.8334 5.58317 41.8334 12.2498V29.7498C41.8334 32.9545 40.5604 36.028 38.2943 38.294C36.0282 40.5601 32.9548 41.8332 29.7501 41.8332H12.2501C5.58342 41.8332 0.166748 36.4165 0.166748 29.7498V12.2498C0.166748 9.04514 1.43981 5.97169 3.70587 3.70563C5.97194 1.43957 9.04538 0.166504 12.2501 0.166504ZM11.8334 4.33317C9.84429 4.33317 7.93664 5.12335 6.53011 6.52987C5.12359 7.93639 4.33341 9.84405 4.33341 11.8332V30.1665C4.33341 34.3123 7.68758 37.6665 11.8334 37.6665H30.1667C32.1559 37.6665 34.0635 36.8763 35.4701 35.4698C36.8766 34.0633 37.6667 32.1556 37.6667 30.1665V11.8332C37.6667 7.68734 34.3126 4.33317 30.1667 4.33317H11.8334ZM31.9376 7.45817C32.6282 7.45817 33.2906 7.73254 33.779 8.22091C34.2674 8.70929 34.5417 9.37167 34.5417 10.0623C34.5417 10.753 34.2674 11.4154 33.779 11.9038C33.2906 12.3921 32.6282 12.6665 31.9376 12.6665C31.2469 12.6665 30.5845 12.3921 30.0962 11.9038C29.6078 11.4154 29.3334 10.753 29.3334 10.0623C29.3334 9.37167 29.6078 8.70929 30.0962 8.22091C30.5845 7.73254 31.2469 7.45817 31.9376 7.45817ZM21.0001 10.5832C23.7628 10.5832 26.4123 11.6806 28.3658 13.6341C30.3193 15.5876 31.4167 18.2372 31.4167 20.9998C31.4167 23.7625 30.3193 26.412 28.3658 28.3655C26.4123 30.319 23.7628 31.4165 21.0001 31.4165C18.2374 31.4165 15.5879 30.319 13.6344 28.3655C11.6809 26.412 10.5834 23.7625 10.5834 20.9998C10.5834 18.2372 11.6809 15.5876 13.6344 13.6341C15.5879 11.6806 18.2374 10.5832 21.0001 10.5832ZM21.0001 14.7498C19.3425 14.7498 17.7528 15.4083 16.5807 16.5804C15.4086 17.7525 14.7501 19.3422 14.7501 20.9998C14.7501 22.6574 15.4086 24.2472 16.5807 25.4193C17.7528 26.5914 19.3425 27.2498 21.0001 27.2498C22.6577 27.2498 24.2474 26.5914 25.4195 25.4193C26.5916 24.2472 27.2501 22.6574 27.2501 20.9998C27.2501 19.3422 26.5916 17.7525 25.4195 16.5804C24.2474 15.4083 22.6577 14.7498 21.0001 14.7498Z" fill="#F9FAFB"/>
</svg>
