<svg width="50" height="51" viewBox="0 0 50 51" fill="none" xmlns="http://www.w3.org/2000/svg">
<path d="M7.50002 27.9643C7.49496 23.6924 9.05264 19.5662 11.8795 16.3634C14.7063 13.1605 18.607 11.1023 22.8465 10.5766C27.0859 10.0509 31.3712 11.0941 34.8947 13.5094C38.4182 15.9248 40.9365 19.5456 41.975 23.6893C43.165 24.2593 44.18 25.1293 44.925 26.2043C44.6412 23.0033 43.5902 19.9178 41.8611 17.2091C40.1319 14.5004 37.7755 12.2483 34.9914 10.6434C32.2072 9.0385 29.0774 8.12813 25.8668 7.98936C22.6562 7.85059 19.4595 8.48751 16.5473 9.84619C13.6351 11.2049 11.0931 13.2453 9.13671 15.7947C7.18028 18.3441 5.86699 21.3274 5.30804 24.492C4.74908 27.6566 4.96092 30.9092 5.92562 33.9746C6.89031 37.0399 8.57946 39.8277 10.85 42.1018C11.0858 42.3295 11.4015 42.4555 11.7293 42.4527C12.057 42.4498 12.3705 42.3183 12.6023 42.0866C12.8341 41.8548 12.9655 41.5413 12.9684 41.2136C12.9712 40.8858 12.8452 40.5701 12.6175 40.3343C10.9923 38.7108 9.70358 36.7823 8.82539 34.6596C7.9472 32.5368 7.4968 30.2615 7.50002 27.9643ZM36.5925 23.2793C35.5024 20.5926 33.5125 18.3682 30.9634 16.9866C28.4142 15.6051 25.4642 15.1523 22.618 15.7058C19.7719 16.2593 17.2065 17.7845 15.3608 20.0207C13.5151 22.2568 12.5039 25.0649 12.5 27.9643C12.5 31.4093 13.895 34.5318 16.15 36.7918C16.3854 37.0199 16.701 37.1463 17.0288 37.1439C17.3566 37.1416 17.6703 37.0106 17.9024 36.7791C18.1345 36.5477 18.2664 36.2343 18.2697 35.9066C18.273 35.5788 18.1474 35.2629 17.92 35.0268C16.8694 33.9716 16.0678 32.695 15.5735 31.2904C15.0793 29.8857 14.905 28.3885 15.0634 26.9079C15.2217 25.4273 15.7088 24.0007 16.4889 22.7324C17.269 21.464 18.3225 20.3859 19.5725 19.5767C20.8225 18.7676 22.2375 18.2477 23.714 18.0553C25.1906 17.8628 26.6915 18.0025 28.1072 18.4642C29.5228 18.9258 30.8175 19.6978 31.8967 20.7238C32.9759 21.7498 33.8124 23.0038 34.345 24.3943C35.0263 23.8991 35.7861 23.5221 36.5925 23.2793ZM20 27.9643C20 26.6382 20.5268 25.3665 21.4645 24.4288C22.4022 23.4911 23.6739 22.9643 25 22.9643C26.3261 22.9643 27.5979 23.4911 28.5356 24.4288C29.4732 25.3665 30 26.6382 30 27.9643C30 29.2904 29.4732 30.5622 28.5356 31.4998C27.5979 32.4375 26.3261 32.9643 25 32.9643C23.6739 32.9643 22.4022 32.4375 21.4645 31.4998C20.5268 30.5622 20 29.2904 20 27.9643ZM25 25.4643C24.337 25.4643 23.7011 25.7277 23.2323 26.1965C22.7634 26.6654 22.5 27.3013 22.5 27.9643C22.5 28.6274 22.7634 29.2632 23.2323 29.7321C23.7011 30.2009 24.337 30.4643 25 30.4643C25.6631 30.4643 26.2989 30.2009 26.7678 29.7321C27.2366 29.2632 27.5 28.6274 27.5 27.9643C27.5 27.3013 27.2366 26.6654 26.7678 26.1965C26.2989 25.7277 25.6631 25.4643 25 25.4643ZM43.75 30.4643C43.75 31.7904 43.2232 33.0622 42.2856 33.9998C41.3479 34.9375 40.0761 35.4643 38.75 35.4643C37.4239 35.4643 36.1522 34.9375 35.2145 33.9998C34.2768 33.0622 33.75 31.7904 33.75 30.4643C33.75 29.1382 34.2768 27.8665 35.2145 26.9288C36.1522 25.9911 37.4239 25.4643 38.75 25.4643C40.0761 25.4643 41.3479 25.9911 42.2856 26.9288C43.2232 27.8665 43.75 29.1382 43.75 30.4643ZM47.5 41.7143C47.5 44.8268 45 47.9643 38.75 47.9643C32.5 47.9643 30 44.8393 30 41.7143C30 40.7197 30.3951 39.7659 31.0984 39.0627C31.8016 38.3594 32.7555 37.9643 33.75 37.9643H43.75C44.7446 37.9643 45.6984 38.3594 46.4017 39.0627C47.1049 39.7659 47.5 40.7197 47.5 41.7143Z" fill="black"/>
</svg>
