<svg width="50" height="51" viewBox="0 0 50 51" fill="none" xmlns="http://www.w3.org/2000/svg">
<path d="M22.9167 4.63086C13.7125 4.63086 6.25 12.0163 6.25 21.1288C6.25 24.2392 7.11875 27.1496 8.63125 29.6309M30.2083 23.3809V27.5475M36.4583 23.3809V27.5475M30.2083 6.71419V10.8809M36.4583 6.71419V10.8809M27.0833 14.0059H22.9167M27.0833 20.2559H22.9167M43.75 14.0059H39.5833M43.75 20.2559H39.5833M29.1667 40.0475L28.8958 41.3954C28.6042 42.8684 28.4562 43.6038 28.125 44.1871C27.6146 45.0862 26.7881 45.7634 25.8062 46.0871C25.1708 46.2975 24.4167 46.2975 22.9167 46.2975C21.4167 46.2975 20.6625 46.2975 20.0271 46.0892C19.0449 45.7649 18.2184 45.087 17.7083 44.1871C17.3771 43.6038 17.2292 42.8684 16.9375 41.3954L16.6667 40.0475M35.4167 10.8809H31.25C29.2854 10.8809 28.3042 10.8809 27.6937 11.4913C27.0833 12.1017 27.0833 13.0829 27.0833 15.0475V19.2142C27.0833 21.1788 27.0833 22.16 27.6937 22.7704C28.3042 23.3809 29.2854 23.3809 31.25 23.3809H35.4167C37.3812 23.3809 38.3625 23.3809 38.9729 22.7704C39.5833 22.16 39.5833 21.1788 39.5833 19.2142V15.0475C39.5833 13.0829 39.5833 12.1017 38.9729 11.4913C38.3625 10.8809 37.3812 10.8809 35.4167 10.8809ZM13.2979 36.085C13.1062 35.51 13.0104 35.2204 13.0208 34.9871C13.0326 34.7458 13.1141 34.5132 13.2553 34.3172C13.3965 34.1213 13.5915 33.9704 13.8167 33.8829C14.0333 33.7975 14.3375 33.7975 14.9417 33.7975H30.8917C31.4979 33.7975 31.8 33.7975 32.0167 33.8809C32.2421 33.9685 32.4373 34.1196 32.5786 34.316C32.7199 34.5124 32.8011 34.7455 32.8125 34.9871C32.8229 35.2204 32.7271 35.5079 32.5354 36.085C32.1812 37.1496 32.0042 37.6829 31.7312 38.1142C31.1604 39.0155 30.2656 39.6634 29.2312 39.9246C28.7354 40.0475 28.1771 40.0475 27.0583 40.0475H18.775C17.6562 40.0475 17.0958 40.0475 16.6021 39.9225C15.568 39.6619 14.6733 39.0147 14.1021 38.1142C13.8292 37.6829 13.6521 37.1496 13.2979 36.085Z" stroke="black" stroke-width="1.5" stroke-linecap="round" stroke-linejoin="round"/>
</svg>
