<svg width="36" height="39" viewBox="0 0 36 39" fill="none" xmlns="http://www.w3.org/2000/svg">
<path d="M18.7917 37.0895L8.58332 14.1728L10.6667 10.0061M10.6667 10.0061L19 6.15195L27.3333 10.0061M10.6667 10.0061L8.83957 8.32591M19.2083 37.0895L29.4167 14.1728L27.3333 10.0061M27.3333 10.0061L31.3 6.36029M6.48957 1.0957L7.6927 4.79779H11.5854L8.4354 7.08633L9.63853 10.7895L6.48853 8.50091L3.33853 10.7895L4.54165 7.08633L1.39374 4.79779H5.28645L6.48957 1.0957ZM30.2969 28.6999L31.5 32.402H35.3927L32.2437 34.6905L33.4469 38.3926L30.2969 36.104L27.1469 38.3926L28.35 34.6905L25.201 32.402H29.0937L30.2969 28.6999Z" stroke="black" stroke-linecap="round" stroke-linejoin="round"/>
</svg>
