<svg width="50" height="50" viewBox="0 0 50 50" fill="none" xmlns="http://www.w3.org/2000/svg">
<path d="M22.9167 4.16675C13.7125 4.16675 6.25 11.5522 6.25 20.6647C6.25 23.7751 7.11875 26.6855 8.63125 29.1667M30.2083 22.9167V27.0834M36.4583 22.9167V27.0834M30.2083 6.25008V10.4167M36.4583 6.25008V10.4167M27.0833 13.5417H22.9167M27.0833 19.7917H22.9167M43.75 13.5417H39.5833M43.75 19.7917H39.5833M29.1667 39.5834L28.8958 40.9313C28.6042 42.4042 28.4562 43.1397 28.125 43.723C27.6146 44.6221 26.7881 45.2993 25.8062 45.623C25.1708 45.8334 24.4167 45.8334 22.9167 45.8334C21.4167 45.8334 20.6625 45.8334 20.0271 45.6251C19.0449 45.3008 18.2184 44.6229 17.7083 43.723C17.3771 43.1397 17.2292 42.4042 16.9375 40.9313L16.6667 39.5834M35.4167 10.4167H31.25C29.2854 10.4167 28.3042 10.4167 27.6937 11.0272C27.0833 11.6376 27.0833 12.6188 27.0833 14.5834V18.7501C27.0833 20.7147 27.0833 21.6959 27.6937 22.3063C28.3042 22.9167 29.2854 22.9167 31.25 22.9167H35.4167C37.3812 22.9167 38.3625 22.9167 38.9729 22.3063C39.5833 21.6959 39.5833 20.7147 39.5833 18.7501V14.5834C39.5833 12.6188 39.5833 11.6376 38.9729 11.0272C38.3625 10.4167 37.3812 10.4167 35.4167 10.4167ZM13.2979 35.6209C13.1062 35.0459 13.0104 34.7563 13.0208 34.523C13.0326 34.2817 13.1141 34.0491 13.2553 33.8531C13.3965 33.6571 13.5915 33.5063 13.8167 33.4188C14.0333 33.3334 14.3375 33.3334 14.9417 33.3334H30.8917C31.4979 33.3334 31.8 33.3334 32.0167 33.4167C32.2421 33.5044 32.4373 33.6555 32.5786 33.8519C32.7199 34.0482 32.8011 34.2814 32.8125 34.523C32.8229 34.7563 32.7271 35.0438 32.5354 35.6209C32.1812 36.6855 32.0042 37.2188 31.7312 37.6501C31.1604 38.5514 30.2656 39.1993 29.2312 39.4605C28.7354 39.5834 28.1771 39.5834 27.0583 39.5834H18.775C17.6562 39.5834 17.0958 39.5834 16.6021 39.4584C15.568 39.1978 14.6733 38.5506 14.1021 37.6501C13.8292 37.2188 13.6521 36.6855 13.2979 35.6209Z" stroke="black" stroke-width="1.5" stroke-linecap="round" stroke-linejoin="round"/>
</svg>
